<?xml version="1.0" encoding="utf-8"?>
<!-- Generated by IcoMoon.io -->
<!DOCTYPE svg PUBLIC "-//W3C//DTD SVG 1.1//EN" "http://www.w3.org/Graphics/SVG/1.1/DTD/svg11.dtd">
<svg version="1.1" xmlns="http://www.w3.org/2000/svg" xmlns:xlink="http://www.w3.org/1999/xlink" width="36" height="28" viewBox="0 0 36 28">
<path d="M16.125 15q-0.922-0.031-1.313-0.859-0.266-0.531-0.75-0.836t-1.062-0.305q-0.828 0-1.414 0.586t-0.586 1.414q0 0.875 0.562 1.391l0.156 0.125q0.531 0.484 1.281 0.484 0.578 0 1.062-0.305t0.75-0.836q0.391-0.828 1.313-0.859zM25 13q0-0.875-0.562-1.391l-0.156-0.125q-0.531-0.484-1.281-0.484-0.578 0-1.062 0.305t-0.75 0.836q-0.391 0.828-1.313 0.859 0.922 0.031 1.313 0.859 0.266 0.531 0.75 0.836t1.062 0.305q0.828 0 1.414-0.586t0.586-1.414zM18.344 9.547q-0.266 0.547-0.859 0.75t-1.141-0.063q-0.969-0.484-2.094-0.484-0.797 0-1.547 0.266 0.047 0 0.148-0.008t0.148-0.008q1.437 0 2.664 0.781t1.852 2.078q0.266 0.562 0.055 1.148t-0.773 0.852q-0.281 0.141-0.609 0.141 0.328 0 0.609 0.141 0.562 0.266 0.773 0.852t-0.055 1.148q-0.625 1.297-1.852 2.078t-2.664 0.781h-0.094q-0.25-0.031-0.688-0.063l-4.531-0.422-3.734 1.875q-0.219 0.109-0.453 0.109-0.625 0-0.891-0.547l-2.5-5q-0.172-0.359-0.063-0.742t0.453-0.586l3.266-1.859 2.312-4.172q0.266-2.422 1.43-4.555t3.055-3.695q0.484-0.391 1.102-0.336t1.008 0.539 0.336 1.094-0.539 1.016q-1.094 0.922-1.828 2 1.922-1.313 4.172-1.578 0.625-0.078 1.117 0.297t0.555 1q0.078 0.625-0.297 1.117t-1 0.555q-1.313 0.156-2.484 0.859 0.719-0.156 1.547-0.156 1.797 0 3.406 0.781 0.562 0.281 0.766 0.867t-0.078 1.148zM33.391 7.047l2.5 5q0.172 0.359 0.063 0.742t-0.453 0.586l-3.266 1.859-2.312 4.172q-0.266 2.422-1.43 4.555t-3.055 3.695q-0.406 0.344-0.953 0.344-0.703 0-1.156-0.547-0.391-0.484-0.336-1.094t0.539-1.016q1.094-0.922 1.828-2-1.922 1.313-4.172 1.578-0.063 0.016-0.187 0.016-0.562 0-0.992-0.375t-0.492-0.938q-0.078-0.625 0.297-1.117t1-0.555q1.313-0.156 2.484-0.859-0.719 0.156-1.547 0.156-1.797 0-3.406-0.781-0.562-0.281-0.766-0.867t0.078-1.148q0.266-0.547 0.859-0.75t1.141 0.063q0.969 0.484 2.094 0.484 0.797 0 1.547-0.266-0.047 0-0.148 0.008t-0.148 0.008q-1.437 0-2.664-0.781t-1.852-2.078q-0.266-0.562-0.055-1.148t0.773-0.852q0.281-0.141 0.609-0.141-0.328 0-0.609-0.141-0.562-0.266-0.773-0.852t0.055-1.148q0.625-1.297 1.852-2.078t2.664-0.781h0.109q0.219 0.031 0.656 0.063l4.547 0.422 3.734-1.875q0.219-0.109 0.453-0.109 0.625 0 0.891 0.547z"></path>
</svg>
