<?xml version="1.0" encoding="utf-8"?>
<!-- Generated by IcoMoon.io -->
<!DOCTYPE svg PUBLIC "-//W3C//DTD SVG 1.1//EN" "http://www.w3.org/Graphics/SVG/1.1/DTD/svg11.dtd">
<svg version="1.1" xmlns="http://www.w3.org/2000/svg" xmlns:xlink="http://www.w3.org/1999/xlink" width="21" height="32" viewBox="0 0 21 32">
<path d="M15.403 4.697c0 2.594-2.103 4.697-4.697 4.697s-4.697-2.103-4.697-4.697c0-2.594 2.103-4.697 4.697-4.697s4.697 2.103 4.697 4.697z"></path>
<path d="M17.015 10.589h-12.758s-4.28 0-4.28 4.999v14.278c-0.004 0.047-0.006 0.101-0.006 0.155 0 1.153 0.935 2.088 2.088 2.088s2.088-0.935 2.088-2.088c0-0.055-0.002-0.109-0.006-0.163l0-12.751h0.742v14.15l11.366-0.058v-14.069h0.719v0.162c-0.004 0.047-0.006 0.101-0.006 0.155 0 1.153 0.935 2.088 2.088 2.088s2.088-0.935 2.088-2.088c0-0.055-0.002-0.109-0.006-0.163l0-1.628c0.162-5.069-4.117-5.069-4.117-5.069z"></path>
</svg>
