<?xml version="1.0" encoding="utf-8"?>
<!-- Generated by IcoMoon.io -->
<!DOCTYPE svg PUBLIC "-//W3C//DTD SVG 1.1//EN" "http://www.w3.org/Graphics/SVG/1.1/DTD/svg11.dtd">
<svg version="1.1" xmlns="http://www.w3.org/2000/svg" xmlns:xlink="http://www.w3.org/1999/xlink" width="28" height="28" viewBox="0 0 28 28">
<path d="M2 27q0 0.406-0.297 0.703t-0.703 0.297-0.703-0.297-0.297-0.703 0.297-0.703 0.703-0.297 0.703 0.297 0.297 0.703zM5 24q0 0.406-0.297 0.703t-0.703 0.297-0.703-0.297-0.297-0.703 0.297-0.703 0.703-0.297 0.703 0.297 0.297 0.703zM5.703 18.297l4 4-1.406 1.406-4-4zM11 18q0 0.406-0.297 0.703t-0.703 0.297-0.703-0.297-0.297-0.703 0.297-0.703 0.703-0.297 0.703 0.297 0.297 0.703zM22.047 13q0 0.922-0.18 1.695t-0.586 1.461-0.688 1.055-0.828 1.008q-0.484 0.547-0.711 0.844t-0.523 0.781-0.414 1-0.117 1.156q0 2.484-1.758 4.242t-4.242 1.758q-0.406 0-0.703-0.297t-0.297-0.703 0.297-0.703 0.703-0.297q1.656 0 2.828-1.172t1.172-2.828q0-0.891 0.18-1.648t0.578-1.422 0.68-1.039 0.812-0.984q0.625-0.719 0.93-1.125t0.586-1.164 0.281-1.617q0-2.891-2.055-4.945t-4.945-2.055-4.945 2.055-2.055 4.945q0 0.406-0.297 0.703t-0.703 0.297-0.703-0.297-0.297-0.703q0-1.828 0.711-3.492t1.922-2.875 2.875-1.922 3.492-0.711 3.492 0.711 2.875 1.922 1.922 2.875 0.711 3.492zM14 15q0 0.406-0.297 0.703t-0.703 0.297-0.703-0.297-0.297-0.703 0.297-0.703 0.703-0.297 0.703 0.297 0.297 0.703zM18.5 13q0 0.406-0.297 0.703t-0.703 0.297-0.703-0.297-0.297-0.703q0-1.453-1.023-2.477t-2.477-1.023q-1.437 0-2.469 1.023t-1.031 2.477q0 0.406-0.297 0.703t-0.703 0.297-0.703-0.297-0.297-0.703q0-2.281 1.609-3.891t3.891-1.609 3.891 1.609 1.609 3.891zM24.656 8.484q0.156 0.391-0.016 0.766t-0.562 0.531q-0.141 0.063-0.359 0.063-0.297 0-0.555-0.172t-0.367-0.469q-1.062-2.781-3.5-4.609-0.328-0.25-0.391-0.656t0.187-0.734q0.266-0.328 0.672-0.391t0.734 0.187q2.859 2.141 4.156 5.484zM27.937 7.219q0.141 0.391-0.023 0.766t-0.555 0.531q-0.172 0.063-0.359 0.063-0.688 0-0.938-0.641-1.437-3.719-4.641-6.141-0.344-0.25-0.398-0.656t0.195-0.734q0.25-0.344 0.656-0.398t0.734 0.195q3.672 2.734 5.328 7.016z"></path>
</svg>
