<?xml version="1.0" encoding="utf-8"?>
<!-- Generated by IcoMoon.io -->
<!DOCTYPE svg PUBLIC "-//W3C//DTD SVG 1.1//EN" "http://www.w3.org/Graphics/SVG/1.1/DTD/svg11.dtd">
<svg version="1.1" xmlns="http://www.w3.org/2000/svg" xmlns:xlink="http://www.w3.org/1999/xlink" width="36" height="28" viewBox="0 0 36 28">
<path d="M7.875 15.531h2.672l-0.016-4.141zM23.906 13.984q0-1.359-0.789-2.188t-2.289-0.828h-0.844v6.062h0.812q1.422 0 2.266-0.891t0.844-2.156zM14.938 8.094l0.016 11.813q0 0.219-0.148 0.375t-0.367 0.156h-3.375q-0.219 0-0.367-0.156t-0.148-0.375v-0.969h-4.547l-0.859 1.266q-0.156 0.234-0.438 0.234h-4.172q-0.328 0-0.477-0.281t0.055-0.547l8.687-11.828q0.141-0.219 0.422-0.219h5.187q0.219 0 0.375 0.156t0.156 0.375zM27.859 13.984q0 3.016-1.961 4.734t-5.070 1.719h-4.219q-0.219 0-0.375-0.156t-0.156-0.375v-11.812q0-0.219 0.156-0.375t0.375-0.156h4.188q3.125 0 5.094 1.703t1.969 4.719zM30.297 14q0 0.172-0.008 0.453t-0.125 1.117-0.336 1.594-0.695 1.687-1.148 1.602h-0.797q0.594-0.703 1.039-1.633t0.648-1.75 0.328-1.531 0.141-1.133l0.016-0.422q0-0.125-0.008-0.352t-0.117-0.938-0.313-1.43-0.641-1.742-1.031-1.945h0.672q0.641 0.734 1.125 1.672t0.711 1.742 0.359 1.5 0.164 1.102zM33.172 14q0 0.172-0.008 0.453t-0.125 1.117-0.336 1.594-0.703 1.687-1.156 1.602h-0.797q0.594-0.703 1.039-1.633t0.648-1.75 0.328-1.531 0.141-1.133l0.016-0.422q0-0.125-0.008-0.352t-0.117-0.938-0.305-1.43-0.633-1.742-1.031-1.945h0.672q0.641 0.734 1.125 1.672t0.711 1.742 0.359 1.5 0.164 1.102zM36 14q0 0.172-0.008 0.453t-0.125 1.117-0.336 1.594-0.695 1.687-1.148 1.602h-0.797q0.594-0.703 1.031-1.633t0.641-1.75 0.328-1.531 0.141-1.133l0.016-0.422q0-0.125-0.008-0.352t-0.117-0.938-0.305-1.43-0.633-1.742-1.031-1.945h0.672q0.641 0.734 1.125 1.672t0.711 1.742 0.359 1.5 0.148 1.102z"></path>
</svg>
