<?xml version="1.0" encoding="utf-8"?>
<!-- Generated by IcoMoon.io -->
<!DOCTYPE svg PUBLIC "-//W3C//DTD SVG 1.1//EN" "http://www.w3.org/Graphics/SVG/1.1/DTD/svg11.dtd">
<svg version="1.1" xmlns="http://www.w3.org/2000/svg" xmlns:xlink="http://www.w3.org/1999/xlink" width="22" height="28" viewBox="0 0 22 28">
<path d="M5.719 4.859q-1 0-1.719-0.711t-0.719-1.727q0-1 0.719-1.711t1.719-0.711 1.711 0.711 0.711 1.711q0 1.016-0.711 1.727t-1.711 0.711zM14.328 14.891q0 0.781-0.469 1.055t-0.992 0.102-0.742-0.531l-5.734-6.844q-0.109-0.187-0.219-0.242t-0.172-0.023l-0.047 0.047q-0.109 0.125 0.063 0.328l1.906 2.172 0.016 5.531-2.516 7.141q-1.047 3-1.437 3.656-0.25 0.406-0.438 0.5-0.781 0.406-1.609 0.016-0.453-0.203-0.648-0.672t-0.148-0.891q0.031-0.266 3.078-9.656l0.078-6.5-1.328 2.562 0.547 3.469q0.063 0.375-0.016 0.656t-0.219 0.43-0.297 0.25-0.266 0.117l-0.109 0.031q-0.297 0.047-0.539-0.047t-0.375-0.25-0.219-0.344-0.117-0.305-0.031-0.148l-0.719-4.672 3.297-5.953q0.359-0.531 1.766-0.531 1.172 0 1.672 0.625l6.625 8.141q0.109 0.078 0.219 0.266l0.047 0.047-0.016 0.016q0.109 0.203 0.109 0.453zM8.031 17.234q0.672 1.766 1.383 3.516t1.086 2.625l0.375 0.859q0.562 1.453 0.656 1.953 0.172 1.094-0.562 1.516-0.547 0.344-1.031 0.25t-0.797-0.344-0.453-0.547h-0.016q-0.094-0.25-0.125-0.391l-1.937-5.484zM20.906 26.484q0.484 0.766 0.484 0.891 0 0.078-0.047 0.109-0.141 0.078-0.227-0.008t-0.242-0.406-0.25-0.477q-1.781-2.688-6.609-10.328 0.047 0.016 0.109-0.016t0.109-0.063l0.047-0.031q0.172-0.141 0.172-0.266z"></path>
</svg>
