<?xml version="1.0" encoding="utf-8"?>
<!-- Generated by IcoMoon.io -->
<!DOCTYPE svg PUBLIC "-//W3C//DTD SVG 1.1//EN" "http://www.w3.org/Graphics/SVG/1.1/DTD/svg11.dtd">
<svg version="1.1" xmlns="http://www.w3.org/2000/svg" xmlns:xlink="http://www.w3.org/1999/xlink" width="34" height="28" viewBox="0 0 34 28">
<path d="M3 18.5q-1.031 0-1.766 0.734t-0.734 1.766 0.734 1.766 1.766 0.734 1.766-0.734 0.734-1.766-0.734-1.766-1.766-0.734zM11 18.5q-1.031 0-1.766 0.734t-0.734 1.766 0.734 1.766 1.766 0.734 1.766-0.734 0.734-1.766-0.734-1.766-1.766-0.734zM11 10.5q-1.031 0-1.766 0.734t-0.734 1.766 0.734 1.766 1.766 0.734 1.766-0.734 0.734-1.766-0.734-1.766-1.766-0.734zM23 18.5q-1.031 0-1.766 0.734t-0.734 1.766 0.734 1.766 1.766 0.734 1.766-0.734 0.734-1.766-0.734-1.766-1.766-0.734zM31 18.5q-1.031 0-1.766 0.734t-0.734 1.766 0.734 1.766 1.766 0.734 1.766-0.734 0.734-1.766-0.734-1.766-1.766-0.734zM23 10.5q-1.031 0-1.766 0.734t-0.734 1.766 0.734 1.766 1.766 0.734 1.766-0.734 0.734-1.766-0.734-1.766-1.766-0.734zM31 10.5q-1.031 0-1.766 0.734t-0.734 1.766 0.734 1.766 1.766 0.734 1.766-0.734 0.734-1.766-0.734-1.766-1.766-0.734zM31 2.5q-1.031 0-1.766 0.734t-0.734 1.766 0.734 1.766 1.766 0.734 1.766-0.734 0.734-1.766-0.734-1.766-1.766-0.734zM6 21q0 1.25-0.875 2.125t-2.125 0.875-2.125-0.875-0.875-2.125 0.875-2.125 2.125-0.875 2.125 0.875 0.875 2.125zM14 21q0 1.25-0.875 2.125t-2.125 0.875-2.125-0.875-0.875-2.125 0.875-2.125 2.125-0.875 2.125 0.875 0.875 2.125zM6 13q0 1.25-0.875 2.125t-2.125 0.875-2.125-0.875-0.875-2.125 0.875-2.125 2.125-0.875 2.125 0.875 0.875 2.125zM14 13q0 1.25-0.875 2.125t-2.125 0.875-2.125-0.875-0.875-2.125 0.875-2.125 2.125-0.875 2.125 0.875 0.875 2.125zM6 5q0 1.25-0.875 2.125t-2.125 0.875-2.125-0.875-0.875-2.125 0.875-2.125 2.125-0.875 2.125 0.875 0.875 2.125zM26 21q0 1.25-0.875 2.125t-2.125 0.875-2.125-0.875-0.875-2.125 0.875-2.125 2.125-0.875 2.125 0.875 0.875 2.125zM14 5q0 1.25-0.875 2.125t-2.125 0.875-2.125-0.875-0.875-2.125 0.875-2.125 2.125-0.875 2.125 0.875 0.875 2.125zM34 21q0 1.25-0.875 2.125t-2.125 0.875-2.125-0.875-0.875-2.125 0.875-2.125 2.125-0.875 2.125 0.875 0.875 2.125zM26 13q0 1.25-0.875 2.125t-2.125 0.875-2.125-0.875-0.875-2.125 0.875-2.125 2.125-0.875 2.125 0.875 0.875 2.125zM34 13q0 1.25-0.875 2.125t-2.125 0.875-2.125-0.875-0.875-2.125 0.875-2.125 2.125-0.875 2.125 0.875 0.875 2.125zM26 5q0 1.25-0.875 2.125t-2.125 0.875-2.125-0.875-0.875-2.125 0.875-2.125 2.125-0.875 2.125 0.875 0.875 2.125zM34 5q0 1.25-0.875 2.125t-2.125 0.875-2.125-0.875-0.875-2.125 0.875-2.125 2.125-0.875 2.125 0.875 0.875 2.125z"></path>
</svg>
