<?xml version="1.0" encoding="utf-8"?>
<!-- Generated by IcoMoon.io -->
<!DOCTYPE svg PUBLIC "-//W3C//DTD SVG 1.1//EN" "http://www.w3.org/Graphics/SVG/1.1/DTD/svg11.dtd">
<svg version="1.1" xmlns="http://www.w3.org/2000/svg" xmlns:xlink="http://www.w3.org/1999/xlink" width="28" height="32" viewBox="0 0 28 32">
<path d="M27.713 10.564c0.336-1.093 0.308-1.989-0.056-2.69-0.308-0.616-0.813-1.009-1.289-1.317-0.336-1.205-1.177-2.242-2.55-2.634-0.364-0.588-0.813-1.121-1.373-1.485s-1.233-0.588-1.961-0.588c-1.289-1.177-2.69-1.793-4.119-1.849-0.056 0-0.112 0-0.14 0-0.757 0-1.513 0.168-2.27 0.476-0.785-0.224-1.905-0.504-3.278 0.14-0.841-0.14-1.709 0.14-2.438 0.757-0.532-0.056-1.065 0.028-1.457 0.224-0.476 0.224-0.813 0.56-1.121 0.897-1.513 0.476-2.466 1.177-3.026 1.961-0.56 0.757-0.785 1.513-1.093 2.13-0.532 0.42-1.065 0.925-1.317 1.681-0.28 0.813-0.308 1.821-0.028 3.082-0.168 1.625 0.14 2.914 0.981 3.783 0.813 0.813 2.018 1.065 3.335 0.953 1.009 0.644 2.298 0.701 3.699 0.476 0.757 0.532 1.625 0.953 2.662 1.177 0.28 0.897 0.504 1.821 0.869 2.718 0.42 1.009 1.177 1.961 2.466 2.494 0.701 0.28 1.317 0.897 1.681 1.401 0 0 0 0 0 0 0.224 0.336 0.336 0.616 0.701 0.897s0.785 0.336 1.289 0.364c1.261 0.084 2.242-0.476 2.998-1.065v0c0.028-0.028 0.056-0.056 0.084-0.084 0.112-0.14 0.168-0.28 0.196-0.392 0.056-0.224 0.028-0.336 0-0.504-0.056-0.336-0.224-0.785-0.616-1.653-0.028-0.056-0.028-0.112-0.056-0.14 0.336 0 0.672-0.056 0.981-0.14 1.149-0.28 2.158-0.925 2.83-1.429 1.093-0.813 1.821-1.429 2.27-2.074 0.504-0.757 0.729-2.158 0.364-2.97 0.112-0.112 0.224-0.196 0.336-0.336 0.869-1.009 0.953-2.494 0.448-4.259zM17.989 24.042c-0.308-0.028-0.392-0.028-0.42-0.056 0 0-0.112-0.14-0.364-0.532 0-0.028-0.028-0.028-0.028-0.056-0.476-0.644-1.233-1.485-2.382-1.933-0.897-0.364-1.261-0.869-1.625-1.653-0.224-0.532-0.42-1.205-0.644-1.933 0.28 0 0.56-0.028 0.869-0.056 0.532 0.196 1.205 0.532 2.074 0.56 0.476 0.028 1.233-0.252 1.821-0.532-0.056 0.981 0.112 1.961 0.672 2.718 0.14 0.196 0.308 0.392 0.504 0.532 0.196 0.532 0.42 1.009 0.616 1.429 0.252 0.532 0.336 0.841 0.42 1.065-0.42 0.308-0.869 0.476-1.513 0.448zM25.247 17.205c-0.28 0.392-0.897 0.953-1.905 1.737-0.56 0.42-1.485 0.953-2.27 1.177-0.392 0.112-0.757 0.112-1.065 0.056-1.149-0.392-1.373-2.158-0.953-3.138 0.504-0.196 0.981-0.504 1.457-0.925 0.336 0.168 0.672 0.308 1.065 0.336 0.532 0.056 1.149-0.084 1.709-0.42 0.785 0.028 1.513 0 2.158-0.168 0.168 0.42 0.168 0.897-0.196 1.345zM26.060 13.758c-0.392 0.42-1.233 0.701-2.606 0.644-0.084-0.616-0.112-0.925-0.112-0.981 0-0.028 0 0 0.028-0.056s0.084-0.112 0.196-0.224c0.196-0.224 0.168-0.56-0.028-0.757-0.112-0.084-0.224-0.14-0.364-0.14-0.168 0-0.308 0.084-0.42 0.196s-0.196 0.196-0.28 0.336-0.168 0.308-0.196 0.504c-0.056 0.364 0.028 0.672 0.112 1.317 0 0.028 0 0.056 0 0.084-0.252 0.168-0.42 0.196-0.644 0.168-0.28-0.028-0.616-0.196-0.981-0.42-0.308-0.196-0.785-0.14-1.009 0.14-0.616 0.701-0.981 0.925-1.485 1.009 0-0.028-0.028-0.028-0.028-0.056-0.168-0.308-0.224-0.448-0.252-0.56s-0.028-0.196 0.084-0.532c0.084-0.28-0.084-0.588-0.364-0.672-0.056-0.028-0.112-0.028-0.168-0.028-0.252 0-0.448 0.168-0.504 0.392-0.112 0.392-0.168 0.729-0.084 1.037s0.196 0.532 0.336 0.841c0 0 0 0.028 0.028 0.028-0.757 0.644-1.261 0.757-1.709 0.757-0.42-0.028-0.897-0.196-1.429-0.392 0-0.056 0-0.112 0-0.14-0.112-0.925-0.056-1.317 0.056-1.513 0.084-0.196 0.28-0.336 0.672-0.672 0.224-0.196 0.252-0.532 0.084-0.757-0.112-0.14-0.28-0.196-0.476-0.196-0.112 0-0.224 0.056-0.336 0.14-0.308 0.28-0.701 0.504-0.925 1.009-0.224 0.476-0.252 1.065-0.168 2.017-1.877 0.14-3.054-0.364-4.147-1.149 0-0.028 0-0.056 0-0.056 0.056-0.476 0.14-0.588 0.224-0.672s0.28-0.14 0.616-0.308c0.28-0.112 0.392-0.42 0.28-0.701-0.084-0.196-0.28-0.336-0.504-0.308-0.056 0-0.14 0.028-0.196 0.056-0.28 0.112-0.588 0.196-0.897 0.476s-0.504 0.729-0.588 1.345c0 0.028 0 0.028 0 0.056-1.233 0.168-2.13 0.056-2.606-0.336-0.168-0.14-0.392-0.196-0.588-0.168-1.177 0.14-1.933-0.056-2.354-0.476s-0.701-1.205-0.504-2.606c0-0.028 0-0.056 0-0.084 0.084-0.028 0.196-0.056 0.252-0.056 0.224-0.028 0.448 0.028 0.813 0.252 0.252 0.168 0.588 0.112 0.757-0.112s0.112-0.56-0.112-0.757c-0.028 0-0.028-0.028-0.056-0.028-0.392-0.28-0.785-0.42-1.177-0.476-0.14 0-0.252 0-0.364 0s-0.224 0.056-0.336 0.056c-0.084-0.672-0.028-1.149 0.084-1.457 0.112-0.336 0.308-0.588 0.616-0.841 0.308 0.252 0.785 0.644 1.457 0.841 0.476 0.14 1.037 0.168 1.681 0.056 0.028 0 0.084 0 0.112 0 0.084-0.028 0.196-0.056 0.28-0.084 0 0 0 0 0 0 0.196-0.056 0.364-0.112 0.56-0.196 0.869-0.364 1.429-0.308 1.821-0.168s0.644 0.392 0.813 0.588c0.196 0.224 0.532 0.252 0.757 0.084 0.224-0.196 0.252-0.532 0.084-0.757-0.224-0.28-0.644-0.701-1.289-0.897-0.476-0.168-1.121-0.224-1.821-0.056 0.028-0.392 0-0.729 0-0.813 0.028-0.28-0.196-0.56-0.504-0.588-0.028 0-0.056 0-0.056 0-0.28 0-0.504 0.224-0.504 0.504-0.028 0.364 0.028 0.701 0 0.981-0.028 0.14-0.056 0.224-0.112 0.252-0.028 0.028-0.028 0.056-0.056 0.056-0.616 0.168-1.065 0.14-1.429 0.028-0.448-0.14-0.785-0.364-1.065-0.616 0.336-0.701 0.532-1.289 0.897-1.765 0.392-0.56 1.009-1.065 2.41-1.457 0.14-0.028 0.252-0.112 0.364-0.224 0.28-0.336 0.56-0.56 0.813-0.672 0.196-0.084 0.336-0.14 0.588-0.084 0.168 0.364 0.42 0.729 0.616 1.149 0 0.028 0 0.028 0 0.056 0.028 0.168 0 0.224-0.14 0.364s-0.364 0.252-0.56 0.336c-0.28 0.112-0.392 0.42-0.28 0.701s0.42 0.392 0.701 0.28c0.252-0.112 0.616-0.252 0.897-0.56 0.168 0.14 0.364 0.252 0.56 0.28 0.392 0.084 0.729 0.028 0.869 0.028 0.308 0 0.56-0.224 0.56-0.504 0-0.308-0.224-0.532-0.532-0.56-0.028 0-0.028 0-0.056 0-0.252 0-0.476 0.028-0.588 0s-0.14 0-0.224-0.224c-0.196-0.701-0.56-1.261-0.785-1.597 0.56-0.532 0.925-0.616 1.401-0.476 0.196 0.056 0.42 0.028 0.616-0.056 0.953-0.56 1.429-0.42 2.13-0.224-0.028 0.252 0 0.56 0.028 0.925 0.084 0.729 0.252 1.625 0.504 2.438 0.028 0.112 0 0.532-0.224 0.841-0.196 0.308-0.476 0.532-0.925 0.532-0.308-0.028-0.56 0.224-0.56 0.504-0.028 0.308 0.224 0.56 0.504 0.56 0.028 0 0.028 0 0.056 0 0.841 0 1.485-0.476 1.849-1.009 0.28-0.42 0.42-0.841 0.392-1.289 0.168 0.056 0.308 0.084 0.448 0.084 0.308 0.056 0.56-0.168 0.616-0.448s-0.168-0.56-0.448-0.616c-0.196-0.028-0.476-0.112-0.672-0.196s-0.196-0.14-0.196-0.14c0-0.084-0.028-0.14-0.056-0.196-0.084-0.42-0.168-0.869-0.196-1.205-0.028-0.308-0.028-0.532-0.028-0.672 0.028-0.028 0.028-0.056 0.056-0.056 0.672-0.308 1.317-0.476 1.933-0.448 1.037 0.028 2.046 0.504 3.138 1.541 0 0 0 0.028-0.028 0.028-0.112 0.28-0.504 1.037-1.261 1.373-0.28 0.112-0.392 0.448-0.252 0.701 0.112 0.28 0.448 0.392 0.729 0.252 1.149-0.532 1.653-1.597 1.793-1.933 0-0.028 0.028-0.056 0.028-0.084 0.42 0 0.757 0.112 1.093 0.336 0.28 0.196 0.588 0.504 0.841 0.897 0 0-0.028 0.056-0.028 0.056-0.028 0.028-0.028 0.056-0.056 0.084 0 0-0.056 0.14-0.112 0.252-0.028 0.056-0.056 0.14-0.084 0.196-0.084 0.196-0.224 0.392-0.364 0.56-0.168 0.224-0.364 0.364-0.504 0.42s-0.196 0.056-0.392-0.084c-0.252-0.168-0.588-0.112-0.757 0.112-0.168 0.252-0.112 0.588 0.112 0.757 0.448 0.336 1.009 0.392 1.429 0.224 0.168-0.056 0.308-0.168 0.448-0.252 0.112 0.28 0.28 0.56 0.448 0.841 0.14 0.252 0.476 0.336 0.729 0.196s0.336-0.476 0.196-0.729c0-0.028-0.028-0.028-0.028-0.056-0.28-0.42-0.42-0.701-0.448-0.953-0.028-0.224 0.028-0.476 0.224-0.841 1.149 0.252 1.513 0.785 1.681 1.793 0.028 0.224 0.168 0.392 0.336 0.504 0.504 0.308 0.841 0.56 1.009 0.869 0.14 0.252 0.196 0.644 0.028 1.345-0.224 0.14-0.616 0.196-1.037 0.168-0.224-0.028-0.42-0.056-0.588-0.084s-0.308-0.112-0.252-0.084c-0.252-0.168-0.588-0.112-0.757 0.112-0.168 0.252-0.112 0.588 0.112 0.757 0.196 0.14 0.364 0.196 0.616 0.252s0.504 0.112 0.813 0.14c0.336 0.028 0.701 0.028 1.065-0.056 0.336 1.373 0.168 2.186-0.224 2.606z"></path>
<path d="M9.219 10.564c0 0 0 0 0 0-0.392 0.392-1.009 0.841-1.401 0.925-0.196 0.056-0.308 0.028-0.42-0.056s-0.28-0.308-0.42-0.813c-0.056-0.252-0.308-0.42-0.56-0.42-0.28 0.028-0.476 0.252-0.504 0.504-0.028 0.644-0.168 0.841-0.28 0.953s-0.336 0.196-0.673 0.364c-0.336 0.168-0.729 0.42-1.009 0.869-0.168 0.252-0.084 0.588 0.168 0.729s0.588 0.084 0.757-0.168c0 0 0 0 0-0.028 0.14-0.224 0.308-0.336 0.588-0.476 0.224-0.112 0.588-0.224 0.925-0.56 0.084-0.084 0.168-0.168 0.224-0.28 0.056 0.028 0.084 0.084 0.14 0.112 0.392 0.28 0.897 0.336 1.289 0.224 0.813-0.196 1.457-0.785 1.905-1.205 0.224-0.196 0.224-0.532 0.028-0.757-0.196-0.112-0.532-0.112-0.757 0.084z"></path>
<path d="M21.912 11.264c0 0-0.028 0-0.028 0-0.112 0-0.42-0.084-0.616-0.168-0.028 0-0.028 0-0.028 0 0.14-0.392 0.14-0.869-0.084-1.289-0.252-0.476-0.729-0.897-1.457-1.289-0.084-0.056-0.168-0.056-0.252-0.056-0.308 0-0.532 0.224-0.56 0.532 0 0.196 0.112 0.392 0.28 0.476 0.616 0.336 0.897 0.644 1.009 0.841s0.084 0.308 0 0.504c-0.168 0.364-0.785 0.841-1.149 1.065-0.252 0.168-0.308 0.504-0.168 0.729 0.168 0.252 0.504 0.308 0.757 0.168 0 0 0 0 0 0 0.224-0.168 0.644-0.392 0.981-0.757 0.056 0.028 0.112 0.056 0.168 0.084 0.336 0.168 0.701 0.252 1.009 0.252 0.308 0.028 0.56-0.196 0.588-0.476 0.056-0.336-0.168-0.588-0.448-0.616z"></path>
<path d="M17.513 10.060c-0.028 0-0.028 0-0.056 0-0.392-0.084-0.785-0.168-1.093-0.392-0.112-0.084-0.196-0.168-0.28-0.308 0 0 0 0 0 0-0.028-0.056-0.056-0.112-0.084-0.168-0.084-0.224-0.112-0.504-0.112-0.925 0.028-0.308-0.196-0.56-0.504-0.56-0.028 0-0.056 0-0.056 0-0.28 0.028-0.504 0.252-0.504 0.504-0.028 0.56 0.056 1.037 0.224 1.429 0.084 0.392-0.056 0.701-0.28 0.925s-0.504 0.252-0.56 0.224c-0.28-0.112-0.588 0-0.701 0.28s0 0.588 0.28 0.701c0.028 0 0.056 0.028 0.056 0.028 0.616 0.224 1.261-0.028 1.709-0.476 0.168-0.168 0.336-0.392 0.448-0.644 0.476 0.28 0.981 0.336 1.233 0.42 0.28 0.084 0.588-0.084 0.672-0.364 0.056-0.28-0.112-0.588-0.392-0.672z"></path>
</svg>
