<?xml version="1.0" encoding="utf-8"?>
<!-- Generated by IcoMoon.io -->
<!DOCTYPE svg PUBLIC "-//W3C//DTD SVG 1.1//EN" "http://www.w3.org/Graphics/SVG/1.1/DTD/svg11.dtd">
<svg version="1.1" xmlns="http://www.w3.org/2000/svg" xmlns:xlink="http://www.w3.org/1999/xlink" width="28" height="28" viewBox="0 0 28 28">
<path d="M10 14q0-0.828-0.586-1.414t-1.414-0.586-1.414 0.586-0.586 1.414 0.586 1.414 1.414 0.586 1.414-0.586 0.586-1.414zM16 14q0-0.828-0.586-1.414t-1.414-0.586-1.414 0.586-0.586 1.414 0.586 1.414 1.414 0.586 1.414-0.586 0.586-1.414zM22 14q0-0.828-0.586-1.414t-1.414-0.586-1.414 0.586-0.586 1.414 0.586 1.414 1.414 0.586 1.414-0.586 0.586-1.414zM28 14q0 2.719-1.875 5.023t-5.094 3.641-7.031 1.336q-1.719 0-3.297-0.281-2.703 2.703-6.797 3.578-0.812 0.156-1.344 0.203-0.187 0.016-0.344-0.094t-0.203-0.281q-0.063-0.234 0.313-0.578 0.078-0.078 0.367-0.336t0.398-0.367 0.367-0.398 0.375-0.492 0.32-0.578 0.313-0.75 0.227-0.898 0.195-1.133q-2.281-1.406-3.586-3.383t-1.305-4.211q0-2.719 1.875-5.023t5.094-3.641 7.031-1.336 7.031 1.336 5.094 3.641 1.875 5.023z"></path>
</svg>
