<?xml version="1.0" encoding="utf-8"?>
<!-- Generated by IcoMoon.io -->
<!DOCTYPE svg PUBLIC "-//W3C//DTD SVG 1.1//EN" "http://www.w3.org/Graphics/SVG/1.1/DTD/svg11.dtd">
<svg version="1.1" xmlns="http://www.w3.org/2000/svg" xmlns:xlink="http://www.w3.org/1999/xlink" width="28" height="28" viewBox="0 0 28 28">
<path d="M9.453 19.266q2.391 0 4.016-1.625 0.219-0.281 0.047-0.562l-0.703-1.281q-0.094-0.203-0.375-0.266-0.25-0.031-0.422 0.172l-0.063 0.047q-0.063 0.063-0.18 0.156t-0.273 0.203-0.367 0.227-0.445 0.211-0.523 0.148-0.586 0.055q-1.188 0-1.953-0.781t-0.766-1.984q0-1.188 0.75-1.961t1.906-0.773q0.578 0 1.117 0.219t0.789 0.438l0.25 0.219q0.172 0.172 0.406 0.156 0.25-0.031 0.375-0.219l0.828-1.219q0.203-0.313-0.031-0.609-0.047-0.063-0.172-0.187t-0.469-0.367-0.758-0.438-1.055-0.352-1.344-0.156q-2.312 0-3.844 1.508t-1.531 3.758q0 2.281 1.516 3.773t3.859 1.492zM19.297 19.266q2.391 0 4.016-1.625 0.219-0.281 0.063-0.562l-0.703-1.281q-0.125-0.219-0.391-0.266-0.25-0.031-0.422 0.172l-0.063 0.047q-0.063 0.063-0.18 0.156t-0.273 0.203-0.367 0.227-0.445 0.211-0.523 0.148-0.586 0.055q-1.188 0-1.953-0.781t-0.766-1.984q0-1.188 0.75-1.961t1.906-0.773q0.578 0 1.117 0.219t0.789 0.438l0.25 0.219q0.172 0.172 0.406 0.156 0.25-0.031 0.375-0.219l0.828-1.219q0.203-0.313-0.031-0.609-0.047-0.063-0.172-0.187t-0.469-0.367-0.758-0.438-1.055-0.352-1.344-0.156q-2.297 0-3.836 1.508t-1.539 3.758q0 2.281 1.516 3.773t3.859 1.492zM14 2.5q-2.344 0-4.469 0.914t-3.664 2.453-2.453 3.664-0.914 4.469 0.914 4.469 2.453 3.664 3.664 2.453 4.469 0.914 4.469-0.914 3.664-2.453 2.453-3.664 0.914-4.469-0.914-4.469-2.453-3.664-3.664-2.453-4.469-0.914zM14 0q2.844 0 5.437 1.109t4.469 2.984 2.984 4.469 1.109 5.437-1.109 5.437-2.984 4.469-4.469 2.984-5.437 1.109-5.437-1.109-4.469-2.984-2.984-4.469-1.109-5.437 1.109-5.437 2.984-4.469 4.469-2.984 5.437-1.109z"></path>
</svg>
