<?xml version="1.0" encoding="utf-8"?>
<!-- Generated by IcoMoon.io -->
<!DOCTYPE svg PUBLIC "-//W3C//DTD SVG 1.1//EN" "http://www.w3.org/Graphics/SVG/1.1/DTD/svg11.dtd">
<svg version="1.1" xmlns="http://www.w3.org/2000/svg" xmlns:xlink="http://www.w3.org/1999/xlink" width="28" height="28" viewBox="0 0 28 28">
<path d="M16.5 13q0 0.406 0.297 0.703t0.703 0.297 0.703-0.297 0.297-0.703q0-2.281-1.609-3.891t-3.891-1.609-3.891 1.609-1.609 3.891q0 0.406 0.297 0.703t0.703 0.297 0.703-0.297 0.297-0.703q0-1.453 1.031-2.477t2.469-1.023 2.469 1.023 1.031 2.477zM13.047 4q-1.828 0-3.492 0.711t-2.875 1.922-1.922 2.875-0.711 3.492q0 0.406 0.297 0.703t0.703 0.297 0.703-0.297 0.297-0.703q0-2.891 2.055-4.945t4.945-2.055 4.945 2.055 2.055 4.945q0 0.859-0.281 1.617t-0.586 1.164-0.93 1.125q-0.531 0.609-0.812 0.984t-0.68 1.039-0.578 1.422-0.18 1.648q0 1.656-1.172 2.828t-2.828 1.172q-0.406 0-0.703 0.297t-0.297 0.703 0.297 0.703 0.703 0.297q2.484 0 4.242-1.758t1.758-4.242q0-0.641 0.117-1.156t0.414-1 0.523-0.781 0.711-0.844q0.547-0.641 0.828-1.008t0.688-1.055 0.586-1.461 0.18-1.695q0-1.828-0.711-3.492t-1.922-2.875-2.875-1.922-3.492-0.711zM9.234 15.234l3.531 3.531-9.047 9.047q-0.187 0.187-0.453 0.187t-0.453-0.187l-2.625-2.625q-0.187-0.187-0.187-0.453t0.187-0.453zM25.188 0.187l2.625 2.625q0.187 0.187 0.187 0.453t-0.187 0.469l-3.641 3.641-0.406 0.391-1.109 1.109q-1.031-2.391-3.047-4.031l4.656-4.656q0.203-0.187 0.469-0.187t0.453 0.187z"></path>
</svg>
