<?xml version="1.0" encoding="utf-8"?>
<!-- Generated by IcoMoon.io -->
<!DOCTYPE svg PUBLIC "-//W3C//DTD SVG 1.1//EN" "http://www.w3.org/Graphics/SVG/1.1/DTD/svg11.dtd">
<svg version="1.1" xmlns="http://www.w3.org/2000/svg" xmlns:xlink="http://www.w3.org/1999/xlink" width="26" height="28" viewBox="0 0 26 28">
<path d="M10 15.75v-3.5q0-0.25-0.25-0.25h-1.5q-0.25 0-0.25 0.25v3.5q0 0.25 0.25 0.25h1.5q0.25 0 0.25-0.25zM18 15.75v-3.5q0-0.25-0.25-0.25h-1.5q-0.25 0-0.25 0.25v3.5q0 0.25 0.25 0.25h1.5q0.25 0 0.25-0.25zM26 16.25v11.75h-10v-5q0-1.25-0.875-2.125t-2.125-0.875-2.125 0.875-0.875 2.125v5h-10v-11.75q0-0.25 0.25-0.25h1.5q0.25 0 0.25 0.25v1.75h2v-9.75q0-0.25 0.25-0.25h1.5q0.25 0 0.25 0.25v1.75h2v-1.75q0-0.25 0.25-0.25h1.5q0.25 0 0.25 0.25v1.75h2v-1.75q0-0.25 0.25-0.25h0.25v-6.141q-0.5-0.297-0.5-0.859 0-0.406 0.297-0.703t0.703-0.297 0.703 0.297 0.297 0.703q0 0.562-0.5 0.859v0.141h4.25q0.25 0 0.25 0.25v3.5q0 0.25-0.25 0.25h-4.25v2h0.25q0.25 0 0.25 0.25v1.75h2v-1.75q0-0.25 0.25-0.25h1.5q0.25 0 0.25 0.25v1.75h2v-1.75q0-0.25 0.25-0.25h1.5q0.25 0 0.25 0.25v9.75h2v-1.75q0-0.25 0.25-0.25h1.5q0.25 0 0.25 0.25z"></path>
</svg>
