<?xml version="1.0" encoding="utf-8"?>
<!-- Generated by IcoMoon.io -->
<!DOCTYPE svg PUBLIC "-//W3C//DTD SVG 1.1//EN" "http://www.w3.org/Graphics/SVG/1.1/DTD/svg11.dtd">
<svg version="1.1" xmlns="http://www.w3.org/2000/svg" xmlns:xlink="http://www.w3.org/1999/xlink" width="25" height="28" viewBox="0 0 25 28">
<path d="M13.75 2q-0.719 0-1.234 0.516t-0.516 1.234v10.25h-0.5v-8.25q0-0.719-0.516-1.234t-1.234-0.516-1.234 0.516-0.516 1.234v12.25l-2.406-3.203q-0.594-0.797-1.594-0.797-0.828 0-1.414 0.586t-0.586 1.414q0 0.672 0.406 1.203l6 8q0.594 0.797 1.594 0.797h10.75q0.531 0 0.953-0.344t0.531-0.875l1.188-6.328q0.078-0.5 0.078-0.922v-7.781q0-0.719-0.516-1.234t-1.234-0.516-1.234 0.516-0.516 1.234v4.25h-0.5v-8.25q0-0.719-0.516-1.234t-1.234-0.516-1.234 0.516-0.516 1.234v8.25h-0.5v-10.25q0-0.719-0.516-1.234t-1.234-0.516zM13.75 0q1.062 0 1.961 0.555t1.383 1.508q0.297-0.063 0.656-0.063 1.547 0 2.648 1.102t1.102 2.648v0.266q1.641-0.094 2.82 1t1.18 2.734v7.781q0 0.625-0.125 1.297l-1.188 6.312q-0.219 1.234-1.195 2.047t-2.242 0.812h-10.75q-0.938 0-1.789-0.43t-1.414-1.164l-6-8q-0.797-1.062-0.797-2.406 0-1.656 1.172-2.828t2.828-1.172q1.219 0 2 0.531v-6.781q0-1.547 1.102-2.648t2.648-1.102q0.359 0 0.656 0.063 0.484-0.953 1.383-1.508t1.961-0.555z"></path>
</svg>
