<?xml version="1.0" encoding="utf-8"?>
<!-- Generated by IcoMoon.io -->
<!DOCTYPE svg PUBLIC "-//W3C//DTD SVG 1.1//EN" "http://www.w3.org/Graphics/SVG/1.1/DTD/svg11.dtd">
<svg version="1.1" xmlns="http://www.w3.org/2000/svg" xmlns:xlink="http://www.w3.org/1999/xlink" width="28" height="28" viewBox="0 0 28 28">
<path d="M5.234 21.187q-0.031 0-0.094-0.031-1.344-0.891-2.633-2.266t-2.18-2.812q-0.328-0.469-0.328-1.078 0-0.141 0.031-0.297t0.063-0.281 0.109-0.281 0.133-0.25 0.164-0.266 0.156-0.234 0.187-0.242 0.172-0.227q2.875-3.922 7.063-5.703-1.719-3.094-1.719-3.297 0-0.297 0.266-0.453 1.813-1 2-1 0.281 0 0.438 0.25l1.937 3.578q1.437-0.297 3-0.297 4.156 0 7.773 2.148t5.914 5.773q0.313 0.484 0.313 1.078t-0.313 1.078q-1.422 2.219-3.414 3.961t-4.352 2.742q1.719 3.094 1.719 3.297 0 0.313-0.266 0.453-1.813 1-1.984 1-0.297 0-0.453-0.25l-1.937-3.578-1-1.859-6.937-12.812 0.109-0.109q-0.906 0.375-1.547 0.734 0.047 0.078 1.984 3.656t3.797 7.016 1.859 3.484q0 0.109-0.141 0.141-0.203 0.047-1.125 0.047-0.891 0-0.938-0.109l-7.125-13.141q-0.609 0.438-1.281 1.062 0.375 0.672 3.344 6.148t2.969 5.539q0 0.156-0.172 0.156-0.219 0-1.289-0.344t-1.133-0.438l-1.656-3.078-3.5-6.453q-0.688 0.828-1.219 1.656 0.031 0.047 0.281 0.391t0.359 0.531l2.75 5.109q0 0.156-0.156 0.156zM18.203 19.594l0.766 1.422q4.266-1.734 7.031-6.016-2.812-4.328-7.172-6.078 1.047 1 1.609 2.32t0.562 2.758q0 1.656-0.734 3.133t-2.063 2.461zM13.25 10q0 0.313 0.219 0.531t0.531 0.219q1.344 0 2.297 0.953t0.953 2.297q0 0.313 0.219 0.531t0.531 0.219 0.531-0.219 0.219-0.531q0-1.969-1.391-3.359t-3.359-1.391q-0.313 0-0.531 0.219t-0.219 0.531zM18.969 8.984l-0.141-0.063 0.109 0.109z"></path>
</svg>
