<?xml version="1.0" encoding="utf-8"?>
<!-- Generated by IcoMoon.io -->
<!DOCTYPE svg PUBLIC "-//W3C//DTD SVG 1.1//EN" "http://www.w3.org/Graphics/SVG/1.1/DTD/svg11.dtd">
<svg version="1.1" xmlns="http://www.w3.org/2000/svg" xmlns:xlink="http://www.w3.org/1999/xlink" width="32" height="28" viewBox="0 0 32 28">
<path d="M31.563 0.172q0.438 0.313 0.438 0.828v22q0 0.313-0.172 0.562t-0.453 0.359l-10 4q-0.375 0.172-0.75 0l-9.625-3.844-9.625 3.844q-0.156 0.078-0.375 0.078-0.297 0-0.562-0.172-0.438-0.313-0.438-0.828v-22q0-0.313 0.172-0.562t0.453-0.359l10-4q0.375-0.172 0.75 0l9.625 3.844 9.625-3.844q0.5-0.203 0.938 0.094zM11.5 2.281v19.844l9 3.594v-19.844zM2 5.672v19.844l8.5-3.391v-19.844zM30 22.328v-19.844l-8.5 3.391v19.844z"></path>
</svg>
