<svg xmlns="http://www.w3.org/2000/svg" xmlns:xlink="http://www.w3.org/1999/xlink" xmlns:sketch="http://www.bohemiancoding.com/sketch/ns" viewBox="0 0 72 93" version="1.1" x="0px" y="0px"><title>ISA</title><desc>Created with Sketch.</desc><g stroke="none" stroke-width="1" fill="none" fill-rule="evenodd" sketch:type="MSPage"><g sketch:type="MSLayerGroup" transform="translate(36.000000, 45.781690) scale(1, -1) translate(-36.000000, -45.781690) translate(0.000000, -0.718310)" fill="#000000"><path d="M58.2831727,92.0681987 C55.6679021,91.4277242 53.2928095,89.3995552 52.0385471,86.7309118 C51.051149,84.595997 51.051149,81.6338028 52.0652335,79.4188288 C53.0259451,77.3906597 55.0274277,75.44255 57.0022239,74.6686434 C59.2438844,73.8146775 62.0726464,73.841364 64.0207561,74.7487027 C69.1178651,77.1237954 71.0926612,82.994811 68.3706449,87.6916234 C67.4366197,89.3194959 65.3817643,91.0541142 63.6204596,91.721275 C62.0726464,92.3083766 59.8843588,92.4418087 58.2831727,92.0681987 L58.2831727,92.0681987 Z" sketch:type="MSShapeGroup"></path><path d="M26.4996294,87.3980726 C26.04596,87.1845812 23.8843588,85.4499629 21.6960712,83.4751668 C19.5077835,81.5270571 16.7590808,79.0985915 15.5848777,78.0578206 C12.3558191,75.2023721 11.5552261,74.2683469 11.181616,72.9607116 C10.0074129,68.7709414 14.250556,64.7412898 18.2001483,66.2624166 C19.2409192,66.6627131 19.7479615,67.0363232 22.1230541,69.171238 C23.1104522,70.0785767 27.7538918,74.2416605 28.6345441,75.0422535 C28.9280949,75.2824314 29.2750185,75.4959229 29.4084507,75.4959229 C29.5418829,75.4959229 31.0630096,74.6953299 32.7709414,73.7079318 C34.4521868,72.6938473 36.0800593,71.7865085 36.3736101,71.6263899 C37.2008895,71.199407 37.4677539,71.573017 31.2231282,64.4210526 C29.5418829,62.5263158 27.3535953,60.0444774 26.3661972,58.9503336 C25.3787991,57.8561898 24.3647146,56.6819867 24.0978503,56.335063 C23.7509266,55.9080801 22.9236471,55.5878428 21.4558933,55.2142328 C17.3194959,54.2268347 13.5033358,52.3054114 9.90066716,49.3699036 L8.75315048,48.4625649 L12.1690141,45.0200148 C14.0370645,43.1519644 15.7183099,41.6041512 15.8784285,41.6041512 C16.0385471,41.6041512 16.6256486,41.9777613 17.1860638,42.4047443 C18.5737583,43.4988881 21.6160119,44.966642 23.590808,45.4736842 C25.6990363,46.0340993 30.289103,46.0340993 32.3973314,45.4736842 C35.5196442,44.6730912 38.2950334,43.0452187 40.670126,40.6968125 C43.0985915,38.2683469 44.1660489,36.5871016 45.2068199,33.4914752 C46.9414381,28.3143069 46.0607858,22.3098592 42.9117865,17.6664196 C42.4314307,16.9725723 41.9510749,16.3320979 41.8176427,16.3054114 C41.283914,16.0652335 41.8443291,15.3446998 45.0200148,12.1690141 L48.4625649,8.75315048 L49.4499629,9.84729429 C51.8250556,12.4892513 54.0133432,16.6523351 55.1608599,20.7353595 C55.8013343,23.0837658 55.8813936,23.7509266 55.8813936,27.8606375 C55.8813936,32.8243143 55.5611564,34.6656783 54.120089,38.2416605 C53.693106,39.2824314 53.4262417,40.1630838 53.506301,40.2431431 C53.5863603,40.3498888 55.2142328,40.4566345 57.1089696,40.5366938 L60.5515196,40.670126 L60.5515196,39.7361008 C60.5515196,39.2290586 60.3113417,35.9199407 60.017791,32.3973314 C58.9236471,19.0541142 58.8435878,17.6397331 59.1905115,16.5189029 C59.590808,15.1578947 60.6048925,13.9570052 61.9659007,13.2898443 C63.5137139,12.4892513 65.9688658,12.6760563 67.4099333,13.6634544 C69.5715345,15.1578947 69.5715345,15.1578947 70.7190511,28.7679763 C71.2794663,35.4662713 71.813195,42.5648629 71.8932543,44.539659 C72.0533729,47.982209 72.0266864,48.1957005 71.4395849,49.209785 C71.0926612,49.7702001 70.2920682,50.624166 69.6515938,51.0778354 L68.5040771,51.8784285 L64.5811712,51.8250556 C62.4462565,51.7983692 57.749444,51.5848777 54.1734618,51.3713862 C50.5707932,51.1312083 47.5819125,50.9977761 47.5285397,51.0778354 C47.4217939,51.1578947 51.3446998,55.9080801 52.278725,56.8154188 C52.3587843,56.8954781 53.3194959,57.9629355 54.4136397,59.2171979 C55.5077835,60.4714603 56.762046,61.8324685 57.1623425,62.2861379 C58.5233506,63.7538918 59.2171979,65.4351371 59.2171979,67.2765011 C59.1905115,70.158636 57.9362491,71.9733136 54.920682,73.4944403 C54.2001483,73.8680504 52.9458858,74.5885841 52.1452928,75.0956264 C51.3446998,75.6026686 50.624166,76.0296516 50.5441067,76.0296516 C50.4640474,76.0296516 50.0637509,76.2431431 49.6634544,76.5366938 C49.2631579,76.8035582 46.4877687,78.4581171 43.4722016,80.1927354 C40.4566345,81.9006672 36.2668643,84.3291327 34.158636,85.5567087 C30.5559674,87.6115641 30.1823573,87.7716827 28.8213491,87.7716827 C27.9940697,87.7449963 26.9532987,87.5848777 26.4996294,87.3980726 L26.4996294,87.3980726 Z" sketch:type="MSShapeGroup"></path><path d="M5.1237954,44.0859896 C3.92290586,42.5381764 2.4818384,39.7361008 1.60118606,37.2542624 C-3.12231282,23.8309859 2.90882135,9.04670126 15.7183099,2.72201631 C20.148258,0.560415122 23.7509266,-0.160118606 29.2216457,0.0533728688 C35.1727205,0.293550778 39.0956264,1.54781319 43.7924388,4.69681245 L45.3135656,5.7375834 L41.9243884,9.12676056 C40.056338,10.994811 38.455152,12.595997 38.3484062,12.6760563 C38.2683469,12.7561156 37.1742031,12.3291327 35.9466271,11.7420311 C32.9577465,10.2475908 30.4492216,9.74054855 27.0600445,9.95404003 C19.1341735,10.381023 12.4625649,15.9318013 10.4610823,23.7242402 C9.47368421,27.647146 10.1408451,32.8243143 12.1156412,36.4536694 L13.02298,38.1082283 L9.52705708,41.5774648 C7.63232024,43.4988881 6.00444774,45.0733877 5.9777613,45.0733877 C5.92438844,45.0733877 5.55077835,44.6197183 5.1237954,44.0859896 L5.1237954,44.0859896 Z" sketch:type="MSShapeGroup"></path></g></g></svg>