<?xml version="1.0" encoding="utf-8"?>
<!-- Generated by IcoMoon.io -->
<!DOCTYPE svg PUBLIC "-//W3C//DTD SVG 1.1//EN" "http://www.w3.org/Graphics/SVG/1.1/DTD/svg11.dtd">
<svg version="1.1" xmlns="http://www.w3.org/2000/svg" xmlns:xlink="http://www.w3.org/1999/xlink" width="24" height="28" viewBox="0 0 24 28">
<path d="M13.75 18.75v2.5q0 0.219-0.141 0.359t-0.359 0.141h-2.5q-0.219 0-0.359-0.141t-0.141-0.359v-2.5q0-0.219 0.141-0.359t0.359-0.141h2.5q0.219 0 0.359 0.141t0.141 0.359zM17.75 11q0 0.781-0.234 1.406t-0.711 1.078-0.812 0.688-0.93 0.562q-0.5 0.281-0.727 0.438t-0.406 0.375-0.18 0.453v0.5q0 0.219-0.141 0.359t-0.359 0.141h-2.5q-0.219 0-0.359-0.141t-0.141-0.359v-1.062q0-0.547 0.164-1.008t0.375-0.742 0.609-0.555 0.641-0.398 0.695-0.328q0.828-0.391 1.172-0.672t0.344-0.766q0-0.656-0.68-1.117t-1.492-0.461q-0.875 0-1.484 0.422-0.453 0.313-1.25 1.297-0.141 0.187-0.391 0.187-0.172 0-0.297-0.094l-1.687-1.281q-0.156-0.109-0.187-0.313t0.078-0.359q1.906-3 5.453-3 2.016 0 3.727 1.398t1.711 3.352zM12 4q-2.031 0-3.883 0.797t-3.187 2.133-2.133 3.187-0.797 3.883 0.797 3.883 2.133 3.187 3.187 2.133 3.883 0.797 3.883-0.797 3.187-2.133 2.133-3.187 0.797-3.883-0.797-3.883-2.133-3.187-3.187-2.133-3.883-0.797zM24 14q0 3.266-1.609 6.023t-4.367 4.367-6.023 1.609-6.023-1.609-4.367-4.367-1.609-6.023 1.609-6.023 4.367-4.367 6.023-1.609 6.023 1.609 4.367 4.367 1.609 6.023z"></path>
</svg>
