<?xml version="1.0" encoding="utf-8"?>
<!-- Generated by IcoMoon.io -->
<!DOCTYPE svg PUBLIC "-//W3C//DTD SVG 1.1//EN" "http://www.w3.org/Graphics/SVG/1.1/DTD/svg11.dtd">
<svg version="1.1" xmlns="http://www.w3.org/2000/svg" xmlns:xlink="http://www.w3.org/1999/xlink" width="32" height="28" viewBox="0 0 32 28">
<path d="M30 12q0.828 0 1.414 0.586t0.586 1.414-0.586 1.414-1.414 0.586h-0.234l-1.797 10.344q-0.125 0.719-0.688 1.188t-1.281 0.469h-20q-0.719 0-1.281-0.469t-0.688-1.188l-1.797-10.344h-0.234q-0.828 0-1.414-0.586t-0.586-1.414 0.586-1.414 1.414-0.586h28zM7.578 24.5q0.406-0.031 0.68-0.352t0.242-0.727l-0.5-6.5q-0.031-0.406-0.352-0.68t-0.727-0.242-0.68 0.352-0.242 0.727l0.5 6.5q0.031 0.391 0.32 0.656t0.68 0.266h0.078zM14 23.5v-6.5q0-0.406-0.297-0.703t-0.703-0.297-0.703 0.297-0.297 0.703v6.5q0 0.406 0.297 0.703t0.703 0.297 0.703-0.297 0.297-0.703zM20 23.5v-6.5q0-0.406-0.297-0.703t-0.703-0.297-0.703 0.297-0.297 0.703v6.5q0 0.406 0.297 0.703t0.703 0.297 0.703-0.297 0.297-0.703zM25.5 23.578l0.5-6.5q0.031-0.406-0.242-0.727t-0.68-0.352-0.727 0.242-0.352 0.68l-0.5 6.5q-0.031 0.406 0.242 0.727t0.68 0.352h0.078q0.391 0 0.68-0.266t0.32-0.656zM7.438 4.562l-1.453 6.438h-2.063l1.578-6.891q0.297-1.375 1.391-2.242t2.5-0.867h2.609q0-0.406 0.297-0.703t0.703-0.297h6q0.406 0 0.703 0.297t0.297 0.703h2.609q1.406 0 2.5 0.867t1.391 2.242l1.578 6.891h-2.063l-1.453-6.438q-0.172-0.688-0.711-1.125t-1.242-0.438h-2.609q0 0.406-0.297 0.703t-0.703 0.297h-6q-0.406 0-0.703-0.297t-0.297-0.703h-2.609q-0.703 0-1.242 0.438t-0.711 1.125z"></path>
</svg>
