<?xml version="1.0" encoding="utf-8"?>
<!-- Generated by IcoMoon.io -->
<!DOCTYPE svg PUBLIC "-//W3C//DTD SVG 1.1//EN" "http://www.w3.org/Graphics/SVG/1.1/DTD/svg11.dtd">
<svg version="1.1" xmlns="http://www.w3.org/2000/svg" xmlns:xlink="http://www.w3.org/1999/xlink" width="26" height="28" viewBox="0 0 26 28">
<path d="M12.984 10.516q0.5 0 0.922 0.281l3.469 2.312q0.953 0.625 1.719 1.516l2.281 2.656q0.625 0.719 0.453 1.656l-1.125 6.453q-0.094 0.5-0.461 0.836t-0.867 0.398l-8.234 0.875-5.5 0.5h-0.141q-0.609 0-1.055-0.438t-0.445-1.062q0-0.578 0.422-1t1.016-0.5l4.062-0.5h-7q-0.641 0-1.086-0.469t-0.414-1.109q0.031-0.609 0.5-1.016t1.078-0.406l6.906-0.016-8.141-1q-0.641-0.078-1.031-0.578t-0.297-1.141q0.094-0.547 0.539-0.898t1.023-0.352h0.156l7.516 0.938-5.484-1.469q-0.594-0.156-0.969-0.648t-0.281-1.070q0.094-0.562 0.516-0.914t0.969-0.352q0.094 0 0.313 0.031l7 1.5 3.391 0.578q0.016 0 0.047 0.008t0.047 0.008q0.359 0 0.477-0.359t-0.195-0.562l-2.906-1.953q-0.547-0.359-0.656-0.992t0.281-1.148q0.422-0.594 1.188-0.594zM11.891 13.672l2.906 1.953-3.406-0.578-0.078-0.031-0.562-0.594-3.719-4.094q-0.016-0.016-0.039-0.055t-0.039-0.055q-0.375-0.484-0.289-1.094t0.586-1q0.484-0.359 1.062-0.273t1 0.523l2.219 2.297-0.063 0.063t-0.078 0.063q-0.5 0.703-0.359 1.547t0.859 1.328zM25.75 6.578l0.234 4.156q0.063 1.141-0.172 2.297l-0.75 3.422q-0.187 0.922-1.047 1.359l-1.656 0.844q0.031-0.969-0.609-1.703l-2.281-2.656q-0.828-0.953-1.828-1.609l-3.469-2.312q-0.531-0.359-1.188-0.359-0.797 0-1.375 0.578l-3.672-4.875q-0.391-0.516-0.281-1.148t0.641-0.992q0.516-0.344 1.117-0.219t0.977 0.625l4.156 5.5-4.094-7.109q-0.328-0.547-0.164-1.172t0.742-0.922q0.547-0.281 1.133-0.094t0.898 0.719l3.766 6.563-2.125-5.266q-0.234-0.547-0.070-1.156t0.695-0.875q0.578-0.297 1.188-0.094t0.875 0.797l3.016 6.484 1.578 3.063q0.125 0.234 0.359 0.273t0.422-0.117 0.172-0.406l-0.187-3.5q-0.031-0.641 0.406-1.109t1.078-0.484q0.609 0 1.047 0.445t0.469 1.055z"></path>
</svg>
