<?xml version="1.0" encoding="utf-8"?>
<!-- Generated by IcoMoon.io -->
<!DOCTYPE svg PUBLIC "-//W3C//DTD SVG 1.1//EN" "http://www.w3.org/Graphics/SVG/1.1/DTD/svg11.dtd">
<svg version="1.1" xmlns="http://www.w3.org/2000/svg" xmlns:xlink="http://www.w3.org/1999/xlink" width="28" height="28" viewBox="0 0 28 28">
<path d="M21.469 10.266q-0.094-0.406-0.445-0.617t-0.758-0.117q-4.078 0.969-6.266 0.969t-6.266-0.969q-0.406-0.094-0.758 0.117t-0.445 0.617 0.117 0.758 0.617 0.445q3.031 0.719 4.734 0.906-0.031 2.469-0.242 4.203t-0.414 2.43-0.641 1.805l-0.141 0.328q-0.156 0.391 0.016 0.766t0.562 0.531q0.141 0.063 0.359 0.063 0.688 0 0.938-0.641l0.125-0.313q0.844-2.172 1.109-4.047h0.656q0.266 1.875 1.109 4.047l0.125 0.313q0.25 0.641 0.938 0.641 0.219 0 0.359-0.063 0.391-0.156 0.562-0.531t0.016-0.766l-0.141-0.328q-0.438-1.109-0.641-1.805t-0.414-2.43-0.242-4.203q1.703-0.187 4.734-0.906 0.406-0.094 0.617-0.445t0.117-0.758zM16 8q0-0.828-0.586-1.414t-1.414-0.586-1.414 0.586-0.586 1.414 0.586 1.414 1.414 0.586 1.414-0.586 0.586-1.414zM25 14q0 2.234-0.867 4.273t-2.344 3.516-3.516 2.344-4.273 0.867-4.273-0.867-3.516-2.344-2.344-3.516-0.867-4.273 0.867-4.273 2.344-3.516 3.516-2.344 4.273-0.867 4.273 0.867 3.516 2.344 2.344 3.516 0.867 4.273zM14 2q-2.438 0-4.656 0.953t-3.828 2.562-2.562 3.828-0.953 4.656 0.953 4.656 2.562 3.828 3.828 2.562 4.656 0.953 4.656-0.953 3.828-2.562 2.562-3.828 0.953-4.656-0.953-4.656-2.562-3.828-3.828-2.562-4.656-0.953zM28 14q0 2.844-1.109 5.437t-2.984 4.469-4.469 2.984-5.437 1.109-5.437-1.109-4.469-2.984-2.984-4.469-1.109-5.437 1.109-5.437 2.984-4.469 4.469-2.984 5.437-1.109 5.437 1.109 4.469 2.984 2.984 4.469 1.109 5.437z"></path>
</svg>
