<?xml version="1.0" encoding="utf-8"?>
<!-- Generated by IcoMoon.io -->
<!DOCTYPE svg PUBLIC "-//W3C//DTD SVG 1.1//EN" "http://www.w3.org/Graphics/SVG/1.1/DTD/svg11.dtd">
<svg version="1.1" xmlns="http://www.w3.org/2000/svg" xmlns:xlink="http://www.w3.org/1999/xlink" width="22" height="28" viewBox="0 0 22 28">
<path d="M9.641 26.391q0-0.172-0.203-0.906t-0.484-1.672-0.313-1.078q-0.016-0.063-0.078-0.414t-0.133-0.562-0.211-0.336q-0.234-0.219-0.797-0.219-0.359 0-1.094 0.086t-1.109 0.086q-0.531 0-0.734-0.172-0.094-0.078-0.172-0.242t-0.117-0.313-0.102-0.375-0.078-0.289q-0.578-2-0.578-3.984t0.578-3.984q0.016-0.063 0.078-0.289t0.102-0.375 0.117-0.313 0.172-0.242q0.203-0.172 0.734-0.172 0.375 0 1.109 0.086t1.094 0.086q0.562 0 0.797-0.219 0.141-0.125 0.211-0.336t0.133-0.562 0.078-0.414q0.031-0.141 0.313-1.078t0.484-1.672 0.203-0.906q0-0.344-0.68-0.82t-1.18-0.664q-0.313-0.125-0.703-0.125-0.531 0-1.531 0.281-0.891 0.266-1.508 0.633t-1.109 1.031-0.719 1.094-0.711 1.477q-0.094 0.187-0.141 0.297-0.766 1.672-1.062 3.375t-0.297 3.813 0.297 3.813 1.062 3.375q0.875 1.906 1.297 2.516 0.984 1.422 2.797 1.984l0.094 0.031q1 0.281 1.531 0.281 0.391 0 0.703-0.125 0.5-0.187 1.18-0.664t0.68-0.82zM12.125 12.125q-0.406 0-0.703-0.297t-0.297-0.711 0.297-0.711q0.578-0.578 0.578-1.406 0-0.812-0.578-1.422-0.297-0.297-0.297-0.703t0.297-0.703 0.703-0.297 0.703 0.297q1.172 1.172 1.172 2.828t-1.172 2.828q-0.328 0.297-0.703 0.297zM14.953 14.953q-0.422 0-0.703-0.297-0.297-0.297-0.297-0.703t0.297-0.703q1.75-1.781 1.75-4.25t-1.75-4.25q-0.297-0.297-0.297-0.703t0.297-0.703 0.703-0.297 0.703 0.297q2.344 2.344 2.344 5.656t-2.344 5.656q-0.281 0.297-0.703 0.297zM17.781 17.781q-0.422 0-0.703-0.297-0.297-0.297-0.297-0.703t0.297-0.703q1.406-1.422 2.164-3.25t0.758-3.828-0.758-3.828-2.164-3.25q-0.297-0.297-0.297-0.703t0.297-0.703 0.703-0.297 0.703 0.297q1.703 1.703 2.609 3.891t0.906 4.594-0.906 4.594-2.609 3.891q-0.281 0.297-0.703 0.297z"></path>
</svg>
