<?xml version="1.0" encoding="utf-8"?>
<!-- Generated by IcoMoon.io -->
<!DOCTYPE svg PUBLIC "-//W3C//DTD SVG 1.1//EN" "http://www.w3.org/Graphics/SVG/1.1/DTD/svg11.dtd">
<svg version="1.1" xmlns="http://www.w3.org/2000/svg" xmlns:xlink="http://www.w3.org/1999/xlink" width="24" height="28" viewBox="0 0 24 28">
<path d="M22.469 12.703q0.531 0.547 0.453 1.281l-0.688 8.609q-0.063 0.656-0.539 1.094t-1.117 0.438q-0.094 0-0.141-0.016-0.688-0.047-1.133-0.57t-0.398-1.211l0.547-6.703-2.234 0.125q0.859 1.766 0.859 3.75 0 3.375-2.312 5.812l-2.141-2.141q1.422-1.578 1.422-3.672 0-2.266-1.602-3.875t-3.867-1.609q-2.094 0-3.687 1.437l-2.141-2.156q1.875-1.781 4.438-2.203l4.125-4.688-2.328-1.359-2.828 2.516q-0.516 0.469-1.203 0.43t-1.141-0.555-0.414-1.203 0.539-1.141l3.734-3.328q0.406-0.359 0.938-0.414t1 0.227l7.625 4.422q0.562 0.328 0.75 1.062 0.266 1.047-0.406 1.828l-3.203 3.625 5.797-0.313q0.766-0.047 1.297 0.5zM19.375 5.563q-1.156 0-1.969-0.812t-0.812-1.969 0.812-1.969 1.969-0.812 1.977 0.812 0.82 1.969-0.82 1.969-1.977 0.812zM9.578 24.969q1.656 0 3.063-0.953l2.172 2.172q-2.281 1.813-5.234 1.813-2.312 0-4.273-1.141t-3.102-3.094-1.141-4.266q0-2.938 1.813-5.25l2.172 2.172q-0.938 1.375-0.938 3.078 0 2.266 1.602 3.867t3.867 1.602z"></path>
</svg>
